<svg xmlns="http://www.w3.org/2000/svg" width="589.596" height="144.239" viewBox="0 0 589.596 144.239">
  <g id="Group_4743" data-name="Group 4743" transform="translate(-56.415 -116.364)">
    <path id="Path_1" data-name="Path 1" d="M238.724,236.061v-3.019a46.788,46.788,0,0,0-3.137-14.276c-3.463-8.326-9.3-16.152-14.265-24.431-9.2-15.364-19.559-33.113-28.818-48.591C184.88,133,177.77,116.621,158.839,116.367c-19.687-.26-26.235,16.468-33.38,28.554C102.774,183.284,56.415,260.5,56.415,260.5h21.4s44.23-75.316,66.188-113.38c2.808-4.867,8.375-11.254,14.837-11.254,9.8,0,14.709,11.228,19.115,18.94,11.8,20.664,23.171,40.439,34.236,60.4,3.48,6.274,10.545,14.537,5.706,23.059-3.155,5.561-9.516,5.217-18.543,5.217-.014.144-87.3,0-87.3,0V260.5h79.312s18.675.547,26.249-.824C230.137,257.409,236.945,248.06,238.724,236.061Z" transform="translate(0 0)"/>
    <path id="Path_2" data-name="Path 2" d="M99.743,140.9v3.022A46.769,46.769,0,0,0,102.88,158.2c3.463,8.329,9.3,16.151,14.265,24.434,9.2,15.361,19.555,33.113,28.814,48.591,7.626,12.746,14.733,29.12,33.668,29.374,19.687.264,26.235-16.465,33.38-28.55,22.685-38.367,69.044-115.574,69.044-115.574h-21.4s-44.23,75.313-66.191,113.379c-2.8,4.867-8.372,11.255-14.833,11.255-9.807,0-14.712-11.228-19.115-18.943-11.8-20.661-23.171-40.435-34.236-60.4-3.48-6.278-10.545-14.537-5.706-23.06,3.155-5.561,9.512-5.22,18.543-5.22.01-.14,87.3,0,87.3,0V116.473H147.1s-18.674-.547-26.249.821C108.33,119.558,101.521,128.908,99.743,140.9Z" transform="translate(106.873 0.001)"/>
    <path id="Path_3" data-name="Path 3" d="M312.885,236.061v-3.019a46.782,46.782,0,0,0-3.137-14.276c-3.463-8.326-9.3-16.152-14.265-24.431-9.2-15.364-19.555-33.113-28.814-48.591C259.042,133,251.935,116.621,233,116.367c-19.687-.26-26.235,16.468-33.38,28.554C176.935,183.284,130.576,260.5,130.576,260.5h21.4s44.231-75.316,66.191-113.38c2.808-4.867,8.372-11.254,14.834-11.254,9.807,0,14.712,11.228,19.115,18.94,11.8,20.664,23.171,40.439,34.236,60.4,3.484,6.274,10.545,14.537,5.706,23.059-3.155,5.561-9.512,5.217-18.543,5.217-.01.144-87.3,0-87.3,0V260.5h79.316s18.671.547,26.246-.824C304.3,257.409,311.106,248.06,312.885,236.061Z" transform="translate(182.926 0)"/>
    <path id="Path_4" data-name="Path 4" d="M173.9,140.9v3.022a46.769,46.769,0,0,0,3.137,14.273c3.463,8.329,9.308,16.151,14.265,24.434,9.2,15.361,19.559,33.113,28.818,48.591,7.623,12.746,14.733,29.12,33.664,29.374,19.687.264,26.236-16.465,33.38-28.55,22.686-38.367,69.044-115.574,69.044-115.574h-21.4s-44.23,75.313-66.188,113.379c-2.808,4.867-8.375,11.255-14.837,11.255-9.8,0-14.709-11.228-19.115-18.943-11.8-20.661-23.167-40.435-34.236-60.4-3.481-6.278-10.546-14.537-5.706-23.06,3.155-5.561,9.516-5.22,18.546-5.22.01-.14,87.3,0,87.3,0V116.473H221.265s-18.675-.547-26.249.821C182.491,119.558,175.683,128.908,173.9,140.9Z" transform="translate(289.798 0.001)"/>
  </g>
</svg>
