<svg xmlns="http://www.w3.org/2000/svg" width="204.382" height="50" viewBox="0 0 204.382 50">
  <g id="Group_3005" data-name="Group 3005" transform="translate(-56.415 -116.364)">
    <path id="Path_1" data-name="Path 1" d="M119.612,157.857V156.81a16.219,16.219,0,0,0-1.087-4.949c-1.2-2.886-3.225-5.6-4.945-8.469-3.19-5.326-6.78-11.479-9.99-16.844-2.643-4.419-5.107-10.1-11.67-10.184-6.824-.09-9.094,5.709-11.571,9.9-7.864,13.3-23.934,40.064-23.934,40.064h7.418s15.332-26.108,22.944-39.3c.973-1.687,2.9-3.9,5.143-3.9,3.4,0,5.1,3.892,6.626,6.565,4.091,7.163,8.032,14.018,11.868,20.937,1.207,2.175,3.656,5.039,1.978,7.993-1.094,1.928-3.3,1.809-6.428,1.809,0,.05-30.263,0-30.263,0v5.9h27.493a67.12,67.12,0,0,0,9.1-.286C116.635,165.257,119,162.016,119.612,157.857Z" transform="translate(0 0)" fill="#fff"/>
    <path id="Path_2" data-name="Path 2" d="M99.743,124.871v1.048a16.212,16.212,0,0,0,1.088,4.948c1.2,2.887,3.225,5.6,4.945,8.47,3.19,5.325,6.779,11.479,9.988,16.844,2.644,4.418,5.107,10.095,11.671,10.182,6.824.091,9.094-5.708,11.571-9.9,7.864-13.3,23.934-40.064,23.934-40.064h-7.418s-15.332,26.107-22.945,39.3c-.972,1.687-2.9,3.9-5.142,3.9-3.4,0-5.1-3.892-6.626-6.567-4.091-7.162-8.032-14.017-11.868-20.936-1.206-2.176-3.656-5.039-1.978-7.994,1.094-1.928,3.3-1.81,6.428-1.81,0-.049,30.263,0,30.263,0v-5.9H116.16a67.256,67.256,0,0,0-9.1.284C102.72,117.472,100.359,120.713,99.743,124.871Z" transform="translate(8.739 0)" fill="#fff"/>
    <path id="Path_3" data-name="Path 3" d="M193.773,157.857V156.81a16.217,16.217,0,0,0-1.088-4.949c-1.2-2.886-3.225-5.6-4.945-8.469-3.19-5.326-6.779-11.479-9.988-16.844-2.644-4.419-5.107-10.1-11.671-10.184-6.824-.09-9.094,5.709-11.571,9.9-7.864,13.3-23.934,40.064-23.934,40.064h7.418s15.332-26.108,22.945-39.3c.973-1.687,2.9-3.9,5.142-3.9,3.4,0,5.1,3.892,6.626,6.565,4.091,7.163,8.032,14.018,11.868,20.937,1.208,2.175,3.655,5.039,1.978,7.993-1.094,1.928-3.3,1.809-6.428,1.809,0,.05-30.263,0-30.263,0v5.9h27.495a67.1,67.1,0,0,0,9.1-.286C190.8,165.257,193.156,162.016,193.773,157.857Z" transform="translate(14.957 0)" fill="#fff"/>
    <path id="Path_4" data-name="Path 4" d="M173.9,124.871v1.048a16.213,16.213,0,0,0,1.088,4.948c1.2,2.887,3.227,5.6,4.945,8.47,3.191,5.325,6.78,11.479,9.99,16.844,2.643,4.418,5.107,10.095,11.67,10.182,6.824.091,9.094-5.708,11.571-9.9,7.864-13.3,23.934-40.064,23.934-40.064h-7.418s-15.332,26.107-22.944,39.3c-.973,1.687-2.9,3.9-5.143,3.9-3.4,0-5.1-3.892-6.626-6.567-4.091-7.162-8.031-14.017-11.868-20.936-1.207-2.176-3.656-5.039-1.978-7.994,1.094-1.928,3.3-1.81,6.429-1.81,0-.049,30.262,0,30.262,0v-5.9H190.321a67.254,67.254,0,0,0-9.1.284C176.881,117.472,174.521,120.713,173.9,124.871Z" transform="translate(23.696 0)" fill="#fff"/>
  </g>
</svg>
