<svg id="Group_4758" data-name="Group 4758" xmlns="http://www.w3.org/2000/svg" width="565.7" height="152.978" viewBox="0 0 565.7 152.978">
  <path id="Path_7808" data-name="Path 7808" d="M356.843,245.722v-3.2a51.208,51.208,0,0,0-3.2-15.141c-3.535-8.835-9.5-17.133-14.558-25.914-9.391-16.294-19.958-35.119-29.409-51.536-7.782-13.519-15.034-30.888-34.356-31.155-20.091-.28-26.774,17.463-34.066,30.279-23.153,40.692-70.464,122.583-70.464,122.583h21.837s45.143-79.879,67.553-120.251c2.865-5.164,8.545-11.939,15.141-11.939,10,0,15.011,11.91,19.508,20.091,12.039,21.917,23.642,42.887,34.939,64.055,3.551,6.659,10.76,15.421,5.823,24.459-3.221,5.9-9.711,5.537-18.925,5.537-.013.15-89.1,0-89.1,0v18.049h80.945s19.055.576,26.784-.873C348.082,268.362,355.027,258.448,356.843,245.722Z" transform="translate(208.857 -118.772)"/>
  <g id="Group_3285" data-name="Group 3285" transform="translate(0)">
    <g id="Group_3282" data-name="Group 3282">
      <path id="Path_7809" data-name="Path 7809" d="M170.128,118.772v3.784a7.634,7.634,0,0,1-1.513,4.431L71.531,262.559h97.735v9.191H56.826v-4a6.652,6.652,0,0,1,1.3-3.891l97.3-135.9H59.638v-9.188Z" transform="translate(-56.826 -118.772)"/>
    </g>
    <g id="Group_3283" data-name="Group 3283" transform="translate(150.706)">
      <path id="Path_7810" data-name="Path 7810" d="M113.2,271.75H102.065V118.772H113.2Z" transform="translate(-102.065 -118.772)"/>
    </g>
    <g id="Group_3284" data-name="Group 3284" transform="translate(210.96)">
      <path id="Path_7811" data-name="Path 7811" d="M196.479,233.693c.433-1.149.883-2.289,1.352-3.4A28.361,28.361,0,0,1,199.4,227.1l60.107-106.273a3.924,3.924,0,0,1,1.732-1.729,6.981,6.981,0,0,1,2.379-.323h7.675V271.75h-9.731V141.365a57.935,57.935,0,0,1,.326-5.946L201.67,242.345a4.719,4.719,0,0,1-4.324,2.808h-1.732a4.866,4.866,0,0,1-4.321-2.808L129.45,135.312a58.719,58.719,0,0,1,.323,6.053V271.75h-9.621V118.772h7.569a7.474,7.474,0,0,1,2.432.323,3.839,3.839,0,0,1,1.786,1.729l61.73,106.383A44.086,44.086,0,0,1,196.479,233.693Z" transform="translate(-120.152 -118.772)"/>
    </g>
  </g>
</svg>
