<svg xmlns="http://www.w3.org/2000/svg" width="65.965" height="50" viewBox="0 0 65.965 50">
  <g id="Group_3055" data-name="Group 3055" transform="translate(-448.5 -697.643)">
    <rect id="Rectangle_178" data-name="Rectangle 178" width="65.963" height="7.143" transform="translate(448.5 697.643)" fill="#fff"/>
    <rect id="Rectangle_179" data-name="Rectangle 179" width="65.963" height="7.143" transform="translate(448.5 740.5)" fill="#fff"/>
    <g id="Group_3054" data-name="Group 3054" transform="translate(448.5 714.258)">
      <path id="Path_7768" data-name="Path 7768" d="M468.894,717.088v-.352a5.613,5.613,0,0,0-.349-1.659,23.7,23.7,0,0,0-1.6-2.839c-1.028-1.788-2.188-3.849-3.221-5.649-.853-1.484-1.65-3.387-3.768-3.417-2.2-.03-2.936,1.914-3.735,3.32-2.536,4.459-7.723,13.438-7.723,13.438h2.392s4.949-8.756,7.407-13.183c.313-.568.938-1.31,1.659-1.31,1.1,0,1.647,1.307,2.139,2.2,1.319,2.4,2.59,4.7,3.831,7.022.388.73,1.178,1.692.637,2.68-.354.646-1.064.607-2.073.607,0,.018-9.769,0-9.769,0v1.98H463.6a20.86,20.86,0,0,0,2.936-.1A2.956,2.956,0,0,0,468.894,717.088Z" transform="translate(-448.5 -703.172)" fill="#fff"/>
      <path id="Path_7769" data-name="Path 7769" d="M454.092,706.024v.352a5.54,5.54,0,0,0,.352,1.662,23.666,23.666,0,0,0,1.6,2.84c1.031,1.785,2.187,3.849,3.224,5.649.853,1.481,1.647,3.386,3.765,3.417,2.2.03,2.936-1.914,3.735-3.32,2.539-4.459,7.726-13.438,7.726-13.438h-2.395s-4.949,8.756-7.4,13.182c-.315.565-.938,1.31-1.662,1.31-1.1,0-1.644-1.307-2.136-2.2-1.322-2.4-2.593-4.7-3.831-7.022-.391-.73-1.181-1.692-.64-2.683.355-.646,1.067-.607,2.076-.607,0-.015,9.766,0,9.766,0v-1.977H459.39a20.893,20.893,0,0,0-2.936.1A2.956,2.956,0,0,0,454.092,706.024Z" transform="translate(-437.289 -703.172)" fill="#fff"/>
      <path id="Path_7770" data-name="Path 7770" d="M478.466,717.088v-.352a5.517,5.517,0,0,0-.352-1.659,23.249,23.249,0,0,0-1.6-2.839c-1.028-1.788-2.188-3.849-3.224-5.649-.85-1.484-1.647-3.387-3.765-3.417-2.2-.03-2.936,1.914-3.735,3.32-2.536,4.459-7.723,13.438-7.723,13.438h2.392s4.949-8.756,7.407-13.183c.313-.568.934-1.31,1.659-1.31,1.1,0,1.647,1.307,2.139,2.2,1.319,2.4,2.59,4.7,3.828,7.022.391.73,1.181,1.692.64,2.68-.355.646-1.064.607-2.076.607,0,.018-9.766,0-9.766,0v1.98h8.873a20.858,20.858,0,0,0,2.936-.1A2.956,2.956,0,0,0,478.466,717.088Z" transform="translate(-429.309 -703.172)" fill="#fff"/>
      <path id="Path_7771" data-name="Path 7771" d="M463.664,706.024v.352a5.536,5.536,0,0,0,.352,1.662,23.649,23.649,0,0,0,1.6,2.84c1.028,1.785,2.187,3.849,3.224,5.649.853,1.481,1.647,3.386,3.765,3.417,2.2.03,2.936-1.914,3.735-3.32,2.539-4.459,7.726-13.438,7.726-13.438h-2.395s-4.949,8.756-7.407,13.182c-.312.565-.934,1.31-1.659,1.31-1.1,0-1.647-1.307-2.14-2.2-1.319-2.4-2.59-4.7-3.828-7.022-.391-.73-1.181-1.692-.64-2.683.355-.646,1.064-.607,2.076-.607,0-.015,9.766,0,9.766,0v-1.977h-8.874a20.891,20.891,0,0,0-2.936.1A2.957,2.957,0,0,0,463.664,706.024Z" transform="translate(-418.098 -703.172)" fill="#fff"/>
    </g>
  </g>
</svg>
