<svg xmlns="http://www.w3.org/2000/svg" width="59.815" height="14.633" viewBox="0 0 59.815 14.633">
  <g id="Group_3236" data-name="Group 3236" transform="translate(-56.415 -116.364)">
    <path id="Path_1" data-name="Path 1" d="M74.91,128.508V128.2a4.747,4.747,0,0,0-.318-1.448,20.568,20.568,0,0,0-1.447-2.479c-.934-1.559-1.984-3.359-2.924-4.93-.773-1.293-1.495-2.955-3.415-2.98-2-.026-2.662,1.671-3.386,2.9-2.3,3.892-7,11.725-7,11.725h2.171s4.487-7.641,6.715-11.5a2.043,2.043,0,0,1,1.505-1.142c.995,0,1.492,1.139,1.939,1.921,1.2,2.1,2.351,4.1,3.473,6.128.353.637,1.07,1.475.579,2.339-.32.564-.965.529-1.881.529,0,.015-8.857,0-8.857,0v1.727h8.046a19.644,19.644,0,0,0,2.663-.084A2.615,2.615,0,0,0,74.91,128.508Z" transform="translate(0 0)" fill="#fff"/>
    <path id="Path_2" data-name="Path 2" d="M99.743,118.854v.307a4.745,4.745,0,0,0,.318,1.448,20.575,20.575,0,0,0,1.447,2.479c.934,1.558,1.984,3.359,2.923,4.93.774,1.293,1.495,2.954,3.416,2.98,2,.027,2.662-1.67,3.386-2.9,2.3-3.892,7-11.725,7-11.725h-2.171s-4.487,7.641-6.715,11.5a2.042,2.042,0,0,1-1.5,1.142c-.995,0-1.493-1.139-1.939-1.922-1.2-2.1-2.351-4.1-3.473-6.127-.353-.637-1.07-1.475-.579-2.339.32-.564.965-.53,1.881-.53,0-.014,8.857,0,8.857,0v-1.726h-8.046a19.683,19.683,0,0,0-2.663.083A2.616,2.616,0,0,0,99.743,118.854Z" transform="translate(-28.09 0)" fill="#fff"/>
    <path id="Path_3" data-name="Path 3" d="M149.071,128.508V128.2a4.746,4.746,0,0,0-.318-1.448,20.567,20.567,0,0,0-1.447-2.479c-.934-1.559-1.984-3.359-2.923-4.93-.774-1.293-1.495-2.955-3.416-2.98-2-.026-2.662,1.671-3.386,2.9-2.3,3.892-7,11.725-7,11.725h2.171s4.487-7.641,6.715-11.5a2.042,2.042,0,0,1,1.5-1.142c.995,0,1.493,1.139,1.939,1.921,1.2,2.1,2.351,4.1,3.473,6.128.353.637,1.07,1.475.579,2.339-.32.564-.965.529-1.881.529,0,.015-8.857,0-8.857,0v1.727h8.047a19.639,19.639,0,0,0,2.663-.084A2.615,2.615,0,0,0,149.071,128.508Z" transform="translate(-48.079 0)" fill="#fff"/>
    <path id="Path_4" data-name="Path 4" d="M173.9,118.854v.307a4.745,4.745,0,0,0,.318,1.448,20.625,20.625,0,0,0,1.447,2.479c.934,1.558,1.984,3.359,2.924,4.93.773,1.293,1.495,2.954,3.415,2.98,2,.027,2.662-1.67,3.386-2.9,2.3-3.892,7-11.725,7-11.725h-2.171s-4.487,7.641-6.715,11.5a2.043,2.043,0,0,1-1.505,1.142c-.995,0-1.492-1.139-1.939-1.922-1.2-2.1-2.35-4.1-3.473-6.127-.353-.637-1.07-1.475-.579-2.339.32-.564.965-.53,1.882-.53,0-.014,8.857,0,8.857,0v-1.726h-8.046a19.683,19.683,0,0,0-2.663.083A2.616,2.616,0,0,0,173.9,118.854Z" transform="translate(-76.169 0)" fill="#fff"/>
  </g>
</svg>
