<svg xmlns="http://www.w3.org/2000/svg" width="21.088" height="25.5" viewBox="0 0 21.088 25.5">
  <g id="Group_2867" data-name="Group 2867" transform="translate(0.25 0.25)">
    <g id="Group_2661" data-name="Group 2661" transform="translate(3.676 0)">
      <path id="Path_7580" data-name="Path 7580" d="M113.274,88.712a6.618,6.618,0,1,1,6.618-6.618A6.625,6.625,0,0,1,113.274,88.712Zm0-11.765a5.147,5.147,0,1,0,5.147,5.147A5.153,5.153,0,0,0,113.274,76.948Z" transform="translate(-106.656 -75.477)" fill="#fff" stroke="#fff" stroke-width="0.5"/>
    </g>
    <g id="Group_2662" data-name="Group 2662" transform="translate(0 13.971)">
      <path id="Path_7581" data-name="Path 7581" d="M107.022,160.556a.735.735,0,0,1-.735-.735,8.824,8.824,0,0,0-17.616-.735h14.675a.735.735,0,1,1,0,1.471H87.169v-.735a10.294,10.294,0,0,1,20.588,0A.736.736,0,0,1,107.022,160.556Z" transform="translate(-87.169 -149.527)" fill="#fff" stroke="#fff" stroke-width="0.5"/>
    </g>
  </g>
</svg>
